<?xml version="1.0" encoding="utf-8"?>
<!-- Svg Vector Icons : http://www.sfont.cn -->
<!DOCTYPE svg PUBLIC "-//W3C//DTD SVG 1.1//EN" "http://www.w3.org/Graphics/SVG/1.1/DTD/svg11.dtd">
<svg version="1.1" xmlns="http://www.w3.org/2000/svg" xmlns:xlink="http://www.w3.org/1999/xlink" x="0px" y="0px" viewBox="0 0 1000 1000" enable-background="new 0 0 1000 1000" xml:space="preserve">
<metadata> Svg Vector Icons : http://www.sfont.cn </metadata>
<g><g transform="translate(0.000000,512.000000) scale(0.100000,-0.100000)"><path d="M4163.6,5000.3c-168.5-9.6-447.9-28.7-622.2-45.9c-1581.2-151.2-2423.5-488.2-2419.7-966.7c0-124.4,32.5-193.3,143.6-304.4c373.3-373.3,1426.2-614.5,3013.1-691.1c210.6-9.6,474.7-19.1,585.8-19.1c174.2,0,210.6-5.7,252.7-38.3c116.8-91.9,101.5-269.9-28.7-336.9c-57.4-28.7-111-30.6-541.7-21.1c-1447.2,38.3-2511.6,220.1-3137.6,534.1c-82.3,40.2-155.1,70.8-160.8,65.1c-17.2-19.1,122.5-354.2,216.3-516.9c185.7-327.4,492-668.1,880.6-978.2c105.3-84.2,191.4-162.7,191.4-172.3c0-9.6-65.1-40.2-143.6-67c-377.1-126.3-599.2-361.8-654.7-693C1680.7,404,1906.6-49.7,2339.2-465.1c350.3-333.1,735.1-595.4,1278.8-865.3c892.1-446,1812.9-675.8,2593.9-649c641.3,21.1,1051,208.7,1225.2,562.8c78.5,157,90,402,28.7,603c-70.8,241.2-218.2,476.7-447.9,717.9L6901,28.8l344.6,348.4c358,359.9,662.3,719.8,855.7,1014.6c105.3,160.8,321.6,532.2,321.6,553.2c0,5.8-74.7-19.1-166.6-55.5C7416,1558.3,6269.3,1347.7,5316,1345.8h-189.5l-65.1,65.1c-46,45.9-65.1,82.3-65.1,124.4c0,80.4,42.1,160.8,99.6,187.6c24.9,13.4,233.5,32.5,484.3,44c1081.6,51.7,1990.9,254.6,2812.1,631.7c260.3,118.7,266.1,126.4,323.5,338.8c76.6,279.5,126.4,603,149.3,962.9c19.2,289.1,19.2,331.2-11.5,421.1c-65.1,195.3-314,377.1-702.5,513C7324.1,4925.6,5672.1,5076.8,4163.6,5000.3z M3242.8,959.1c132.1-132.1,193.3-212.5,243.1-312c61.3-126.3,65.1-145.5,70.8-373.3c7.7-273.8-24.9-528.4-103.4-804c-28.7-99.5-57.4-187.6-63.2-195.3c-19.1-23-392.4,231.6-606.8,411.6c-241.2,202.9-444.1,438.4-547.5,635.6c-76.6,143.6-82.3,162.7-82.3,310.1c0,145.5,3.8,160.8,59.3,227.8c118.7,149.3,449.9,269.9,740.8,273.8l113,1.9L3242.8,959.1z M6839.8-511.1c193.4-239.3,287.2-484.3,254.6-660.4c-19.2-99.5-139.7-224-279.5-285.2c-233.5-105.3-616.4-147.4-995.4-109.1c-275.7,28.7-459.4,59.3-459.4,78.5c0,7.7,80.4,107.2,180,222.1c191.4,222.1,430.7,461.3,813.6,807.8l237.4,216.3l67-63.2C6694.3-338.8,6776.6-432.6,6839.8-511.1z"/><path d="M3185.4-1692.2c-9.6-61.2-15.3-287.1-15.3-503.5c0-344.6,5.7-411.6,42.1-545.6c63.2-229.7,264.2-616.4,448-861.4C4000.8-4058.3,4818.3-4780,4994.4-4780c78.5,0,168.5,65.1,191.4,139.7c24.9,72.7,28.7,55.5-109.1,415.4c-204.8,532.2-285.2,993.5-250.8,1435.7c13.4,172.3,61.3,415.4,101.5,516.9c9.6,23-24.9,38.3-164.6,74.7c-419.2,107.2-886.3,283.3-1297.9,490.1c-135.9,68.9-252.7,124.4-256.5,124.4C3202.6-1583.1,3193-1632.9,3185.4-1692.2z"/><path d="M6133.4-2762.3c-32.5-15.3-206.7-178-384.8-358c-239.3-243.1-329.2-344.6-338.8-390.5c-30.6-135.9,105.3-273.7,243.1-245c88.1,19.1,750.4,681.5,769.6,769.6c17.2,84.2-34.5,185.7-114.9,224C6229.1-2724,6208.1-2724,6133.4-2762.3z"/><path d="M2812.1-4433.5c-63.2-63.2-74.7-158.9-28.7-248.9c47.9-90,91.9-97.6,578.1-97.6c507.3,0,543.7,7.7,593.4,128.3c38.3,88,19.1,164.6-53.6,225.9l-57.4,47.9h-488.2h-488.1L2812.1-4433.5z"/><path d="M5693.1-4412.4c-105.3-84.2-112.9-208.7-19.1-302.5l65.1-65.1h482.4h482.4l65.1,65.1c70.8,70.8,84.2,141.7,42.1,231.6c-44,97.6-88,105.3-603,105.3C5786.9-4378,5729.5-4381.8,5693.1-4412.4z"/></g></g>
</svg>